<?xml version="1.0" encoding="UTF-8" standalone="no"?>
<!DOCTYPE svg PUBLIC "-//W3C//DTD SVG 1.1//EN" "http://www.w3.org/Graphics/SVG/1.1/DTD/svg11.dtd">
<svg width="100%" height="100%" viewBox="0 0 288 288" version="1.1" xmlns="http://www.w3.org/2000/svg" xmlns:xlink="http://www.w3.org/1999/xlink" xml:space="preserve" xmlns:serif="http://www.serif.com/" style="fill-rule:evenodd;clip-rule:evenodd;stroke-linecap:round;stroke-linejoin:round;stroke-miterlimit:1.5;">
    <g transform="matrix(0.48,0,0,0.48,0,0)">
        <g transform="matrix(0.996382,0.0849909,-0.0849909,0.996382,-10.0553,-40.7266)">
            <path d="M527.424,313.147C527.424,208.471 442.568,123.615 337.892,123.615C233.286,123.615 148.36,208.541 148.36,313.147C148.36,417.752 233.286,502.679 337.892,502.679C355.563,502.679 373.147,500.208 390.134,495.337C373.147,500.208 355.563,502.679 337.892,502.679C233.286,502.679 148.36,417.752 148.36,313.147C148.36,208.541 233.286,123.615 337.892,123.615C442.568,123.615 527.424,208.471 527.424,313.147Z" style="fill:rgb(16,18,18);stroke:rgb(249,243,241);stroke-width:16.67px;"/>
        </g>
        <g transform="matrix(1.38271,-0.0353505,0.0353505,1.38271,-158.606,-160.733)">
            <path d="M227.181,378.228C242.399,417.873 280.474,444.041 322.941,444.041C379.552,444.041 425.513,398.08 425.513,341.469C425.513,296.371 396.057,256.563 352.93,243.378C396.057,256.563 425.513,296.371 425.513,341.469C425.513,398.08 379.552,444.041 322.941,444.041C280.474,444.041 242.399,417.873 227.181,378.228Z" style="fill:rgb(16,18,18);stroke:rgb(140,166,148);stroke-width:10.24px;"/>
        </g>
    </g>
</svg>
